---
title: Form
---

stateDiagram-v2
direction TB

classDef danger fill:#f8d7da,stroke:#721c24,stroke-width:2px,text-align:left,color:#721c24
classDef warning fill:#fff3cd,stroke:#856404,stroke-width:2px,text-align:left,color:#856404
classDef success fill:#d4edda,stroke:#155724,stroke-width:2px,text-align:left,color:#155724
classDef primary fill:#cce5ff,stroke:#004085,stroke-width:2px,text-align:left,color:#004085
classDef info fill:#d1ecf1,stroke:#0c5460,stroke-width:2px,text-align:left,color:#0c5460
classDef def fill:#f8f9fa,stroke:#6c757d,stroke-width:2px,text-align:left,color:#6c757d

state "pristine" as pristine
state "dirty" as dirty
state "validating" as validating
state "valid" as valid
state "invalid" as invalid
state "submitting" as submitting
state "success" as success
state "error" as error
class pristine def
class dirty def
class validating def
class valid def
class invalid def
class submitting def
class success def
class error def

validating: └┬ En-validateFormInContext<br> ├┬ success<br> │└ T-valid<br> └┬ failure<br>  └ T-invalid
submitting: └┬ AEn-submitForm<br> ├┬ success<br> │└ T-success<br> └┬ failure<br>  └ T-error

[*] --> pristine
pristine --> dirty: change
dirty --> validating: validate
dirty --> validating: submit<br>└ G-canSubmitForm
validating --> valid: valid
validating --> invalid: invalid
valid --> submitting: submit
invalid --> dirty: change
invalid --> invalid: submit
submitting --> success: success
submitting --> error: error
success --> pristine: reset
error --> valid: retry
error --> pristine: reset
