---
title: Modal
---

stateDiagram-v2
direction TB

classDef danger fill:#f8d7da,stroke:#721c24,stroke-width:2px,text-align:left,color:#721c24
classDef warning fill:#fff3cd,stroke:#856404,stroke-width:2px,text-align:left,color:#856404
classDef success fill:#d4edda,stroke:#155724,stroke-width:2px,text-align:left,color:#155724
classDef primary fill:#cce5ff,stroke:#004085,stroke-width:2px,text-align:left,color:#004085
classDef info fill:#d1ecf1,stroke:#0c5460,stroke-width:2px,text-align:left,color:#0c5460
classDef def fill:#f8f9fa,stroke:#6c757d,stroke-width:2px,text-align:left,color:#6c757d

state "closed" as closed
state "opening" as opening
state "open" as open
state "confirming" as confirming
state "closing" as closing
state "error" as error
class closed def
class opening def
class open def
class confirming def
class closing def
class error def

opening: └┬ En-prepareContent<br> ├┬ success<br> │└ T-open<br> └┬ failure<br>  └ T-closed
confirming: └┬ AEn-handleConfirmation<br> ├┬ success<br> │└ T-closed<br> └┬ failure<br>  └ T-error
closing: └┬ En-clearContent<br> └┬ success<br>  └ T-closed

[*] --> closed
closed --> opening: open
opening --> open: open
opening --> closed: closed
open --> closing: close
open --> confirming: confirm
open --> closing: cancel
confirming --> closed: closed
confirming --> error: error
closing --> closed: closed
error --> closing: close
