---
title: Stoplight
---

stateDiagram-v2
direction TB

classDef danger fill:#f8d7da,stroke:#721c24,stroke-width:2px,text-align:left,color:#721c24
classDef warning fill:#fff3cd,stroke:#856404,stroke-width:2px,text-align:left,color:#856404
classDef success fill:#d4edda,stroke:#155724,stroke-width:2px,text-align:left,color:#155724
classDef primary fill:#cce5ff,stroke:#004085,stroke-width:2px,text-align:left,color:#004085
classDef info fill:#d1ecf1,stroke:#0c5460,stroke-width:2px,text-align:left,color:#0c5460
classDef def fill:#f8f9fa,stroke:#6c757d,stroke-width:2px,text-align:left,color:#6c757d

state "green" as green
state "yellow" as yellow
state "red" as red
class green def
class yellow def
class red def

state red {
  state "wait" as RedStopwalkWait
  state "walk" as RedStopwalkWalk


  [*] --> RedStopwalkWait
  RedStopwalkWait --> RedStopwalkWalk: start
  RedStopwalkWalk --> RedStopwalkWait: stop
}

note right of red
  └ T-stopwalk.start
end note

[*] --> green
green --> yellow: next
yellow --> red: next
red --> green: green<br>└ G-canGoToGreen
