---
title: Word Machine
---

stateDiagram-v2
direction TB

classDef danger fill:#f8d7da,stroke:#721c24,stroke-width:2px,text-align:left,color:#721c24
classDef warning fill:#fff3cd,stroke:#856404,stroke-width:2px,text-align:left,color:#856404
classDef success fill:#d4edda,stroke:#155724,stroke-width:2px,text-align:left,color:#155724
classDef primary fill:#cce5ff,stroke:#004085,stroke-width:2px,text-align:left,color:#004085
classDef info fill:#d1ecf1,stroke:#0c5460,stroke-width:2px,text-align:left,color:#0c5460
classDef def fill:#f8f9fa,stroke:#6c757d,stroke-width:2px,text-align:left,color:#6c757d

state "Parallel states" as WordMachineParallelStates
state WordMachineParallelStates {
  state "on" as WordMachineBoldOn
  state "off" as WordMachineBoldOff


  [*] --> WordMachineBoldOff
  WordMachineBoldOn --> WordMachineBoldOff: off
  WordMachineBoldOff --> WordMachineBoldOn: on
  --
  state "on" as WordMachineUnderlineOn
  state "off" as WordMachineUnderlineOff


  [*] --> WordMachineUnderlineOff
  WordMachineUnderlineOn --> WordMachineUnderlineOff: off
  WordMachineUnderlineOff --> WordMachineUnderlineOn: on
  --
  state "on" as WordMachineItalicsOn
  state "off" as WordMachineItalicsOff


  [*] --> WordMachineItalicsOff
  WordMachineItalicsOn --> WordMachineItalicsOff: off
  WordMachineItalicsOff --> WordMachineItalicsOn: on
  --
  state "none" as WordMachineListNone
  state "bullets" as WordMachineListBullets
  state "numbers" as WordMachineListNumbers


  [*] --> WordMachineListNone
  WordMachineListNone --> WordMachineListBullets: bullets
  WordMachineListNone --> WordMachineListNumbers: numbers
  WordMachineListBullets --> WordMachineListNone: none
  WordMachineListNumbers --> WordMachineListNone: none
}


