---
title: Wizard
---

stateDiagram-v2
direction TB

classDef danger fill:#f8d7da,stroke:#721c24,stroke-width:2px,text-align:left,color:#721c24
classDef warning fill:#fff3cd,stroke:#856404,stroke-width:2px,text-align:left,color:#856404
classDef success fill:#d4edda,stroke:#155724,stroke-width:2px,text-align:left,color:#155724
classDef primary fill:#cce5ff,stroke:#004085,stroke-width:2px,text-align:left,color:#004085
classDef info fill:#d1ecf1,stroke:#0c5460,stroke-width:2px,text-align:left,color:#0c5460
classDef def fill:#f8f9fa,stroke:#6c757d,stroke-width:2px,text-align:left,color:#6c757d

state "step1" as step1
state "step2" as step2
state "step3" as step3
state "complete" as complete
class step1 def
class step2 def
class step3 def
class complete def

state step1 {
  state "pending" as Step1Step1Pending
  state "completed" as Step1Step1Completed


  [*] --> Step1Step1Pending
  Step1Step1Pending --> Step1Step1Completed: next
}
state step2 {
  state "pending" as Step2Step2Pending
  state "completed" as Step2Step2Completed


  [*] --> Step2Step2Pending
  Step2Step2Pending --> Step2Step2Completed: next
}
state step3 {
  state "pending" as Step3Step3Pending
  state "completed" as Step3Step3Completed


  [*] --> Step3Step3Pending
  Step3Step3Pending --> Step3Step3Completed: next
}

note right of step1
  └ T-step1.next
end note
note right of step2
  └ T-step2.next
end note
note right of step3
  └ T-step3.next
end note
complete: └ En-log

[*] --> step1
step1 --> step1: back
step2 --> step1: back
step3 --> step2: back
